<svg width="27" height="26" viewBox="0 0 27 26" fill="none" xmlns="http://www.w3.org/2000/svg">
<path d="M12.5333 0.033226C12.0001 0.080101 10.9747 0.238304 10.5118 0.349632C5.99424 1.43362 2.34385 4.89651 1.02549 9.34963C0.0821348 12.543 0.445416 16.1465 1.99815 19.0352C3.9962 22.7559 7.5294 25.252 11.6485 25.8613C14.4786 26.2774 17.4142 25.7207 19.8985 24.2969C23.004 22.5215 25.2892 19.5039 26.1153 16.1055C26.3849 15.0098 26.4728 14.2363 26.4728 13C26.4728 11.7285 26.379 10.9024 26.0978 9.80666C24.7267 4.45705 20.1212 0.542992 14.6134 0.0508041C13.9747 -0.00193024 13.0548 -0.013649 12.5333 0.033226ZM19.8106 8.55276C20.1212 8.84572 20.2091 9.26174 20.0274 9.54299C19.8692 9.78322 12.1935 17.4531 12.0235 17.5469C11.8243 17.6524 11.6017 17.6524 11.4024 17.5469C11.1564 17.4121 7.00792 13.2285 6.9376 13.0352C6.82042 12.7246 6.99034 12.3028 7.29503 12.1446C7.48839 12.0449 7.83409 12.0391 8.00987 12.127C8.08018 12.1621 8.94737 12.9942 9.93174 13.9785L11.7189 15.7598L15.2638 12.1738C17.2091 10.1992 18.8849 8.53518 18.9786 8.47658C19.213 8.3301 19.6056 8.36526 19.8106 8.55276Z" fill="#B344BE"/>
</svg>
