<svg width="24" height="25" viewBox="0 0 24 25" fill="none" xmlns="http://www.w3.org/2000/svg">
<path d="M12 22.5L1 11.75L5 3H19L23 11.75L12 22.5Z" fill="#4DB6AC"/>
<path d="M19 11.5C19 10.782 16.6445 10.1825 13.5 10.0355V8.5H17.5V5.5H6.5V8.5H10.5V10.0355C7.3555 10.1825 5 10.782 5 11.5C5 12.218 7.3555 12.8175 10.5 12.9645V18.5H13.5V12.9645C16.6445 12.8175 19 12.218 19 11.5ZM12 12.5C8.6865 12.5 6 11.9965 6 11.375C6 10.851 7.9135 10.412 10.5 10.287V11.96C10.98 11.99 11.48 12 12 12C12.52 12 13.02 11.99 13.5 11.96V10.287C16.0865 10.412 18 10.851 18 11.375C18 11.9965 15.3135 12.5 12 12.5Z" fill="white"/>
</svg>
