<svg width="15" height="24" viewBox="0 0 15 24" fill="none" xmlns="http://www.w3.org/2000/svg">
<path d="M8.74219 0.0955124C8.64375 0.161137 7.32188 2.21895 4.29844 7.01895L0 13.8486V14.1111C0 14.4018 0.09375 14.5799 0.309375 14.7252C0.440625 14.8096 0.585938 14.8143 3.36563 14.8143C5.46094 14.8143 6.28125 14.8283 6.28125 14.8658C6.28125 14.8939 5.81719 16.7596 5.25 19.0096C4.59844 21.5877 4.21875 23.1815 4.21875 23.3268C4.21875 23.5846 4.32188 23.7721 4.52813 23.9127C4.70625 24.0299 5.11406 24.0346 5.30625 23.9221C5.46563 23.8236 5.11875 24.3674 10.2141 16.2674L14.0625 10.1549V9.89239C14.0625 9.60176 13.9688 9.42364 13.7531 9.27832C13.6219 9.19395 13.4766 9.18926 10.7016 9.18926C8.60156 9.18926 7.78125 9.1752 7.78125 9.1377C7.78125 9.10957 8.24531 7.24395 8.8125 4.99395C9.46406 2.41582 9.84375 0.822075 9.84375 0.676762C9.84375 0.418949 9.74063 0.231449 9.53438 0.0908241C9.34688 -0.0310497 8.92969 -0.0310497 8.74219 0.0955124Z" fill="#ECEC40"/>
</svg>
