<svg width="16" height="19" viewBox="0 0 16 19" fill="none" xmlns="http://www.w3.org/2000/svg">
<path fill-rule="evenodd" clip-rule="evenodd" d="M8 0.25C5.37665 0.25 3.25 2.37665 3.25 5V5.0702C1.39935 5.42125 0 7.04721 0 9V15C0 17.2091 1.79086 19 4 19H12C14.2091 19 16 17.2091 16 15V9C16 7.04721 14.6006 5.42125 12.75 5.0702V5C12.75 2.37665 10.6234 0.25 8 0.25ZM11.25 5C11.25 3.20507 9.79493 1.75 8 1.75C6.20507 1.75 4.75 3.20507 4.75 5H11.25ZM10 12C10 13.1046 9.10457 14 8 14C6.89543 14 6 13.1046 6 12C6 10.8954 6.89543 10 8 10C9.10457 10 10 10.8954 10 12Z" fill="white"/>
</svg>
