<svg width="298" height="134" viewBox="0 0 298 134" fill="none" xmlns="http://www.w3.org/2000/svg">
<g filter="url(#filter0_d_29_2316)">
<path d="M27.3657 8.2C38.9577 8.2 47.9457 17.188 47.9457 28.36C47.9457 39.532 38.9577 48.52 27.3657 48.52H18.5457V67H5.1057V8.2H27.3657ZM27.3657 35.92C31.4817 35.92 34.5057 32.644 34.5057 28.36C34.5057 24.076 31.4817 20.8 27.3657 20.8H18.5457V35.92H27.3657ZM70.1696 68.176C57.8216 68.176 47.9096 58.516 47.9096 46C47.9096 33.484 57.8216 23.824 70.1696 23.824C82.5176 23.824 92.4296 33.484 92.4296 46C92.4296 58.516 82.5176 68.176 70.1696 68.176ZM70.1696 55.912C75.6296 55.912 79.8296 51.964 79.8296 46C79.8296 40.036 75.6296 36.088 70.1696 36.088C64.7096 36.088 60.5096 40.036 60.5096 46C60.5096 51.964 64.7096 55.912 70.1696 55.912ZM97.8765 67V5.68H110.476V67H97.8765ZM124.317 21.304C120.201 21.304 116.757 17.86 116.757 13.744C116.757 9.628 120.201 6.184 124.317 6.184C128.433 6.184 131.877 9.628 131.877 13.744C131.877 17.86 128.433 21.304 124.317 21.304ZM118.017 67V25H130.617V67H118.017ZM162.769 37.096H154.117V51.964C154.117 55.576 157.225 55.912 162.769 55.576V67C146.305 68.68 141.517 63.724 141.517 51.964V37.096H134.797V25H141.517V17.02L154.117 13.24V25H162.769V37.096ZM174.523 21.304C170.407 21.304 166.963 17.86 166.963 13.744C166.963 9.628 170.407 6.184 174.523 6.184C178.639 6.184 182.083 9.628 182.083 13.744C182.083 17.86 178.639 21.304 174.523 21.304ZM168.223 67V25H180.823V67H168.223ZM208.524 68.176C195.756 68.176 186.264 58.516 186.264 46C186.264 33.484 195.756 23.824 208.524 23.824C216.672 23.824 223.896 28.108 227.508 34.576L216.504 40.96C215.076 38.02 212.052 36.256 208.356 36.256C202.896 36.256 198.864 40.204 198.864 46C198.864 51.796 202.896 55.744 208.356 55.744C212.052 55.744 215.16 53.98 216.504 51.04L227.508 57.34C223.896 63.892 216.756 68.176 208.524 68.176ZM260.57 25H273.17V67H260.57V63.052C257.798 66.244 253.682 68.176 248.054 68.176C237.05 68.176 227.978 58.516 227.978 46C227.978 33.484 237.05 23.824 248.054 23.824C253.682 23.824 257.798 25.756 260.57 28.948V25ZM250.574 56.248C256.37 56.248 260.57 52.3 260.57 46C260.57 39.7 256.37 35.752 250.574 35.752C244.778 35.752 240.578 39.7 240.578 46C240.578 52.3 244.778 56.248 250.574 56.248ZM280.734 67V5.68H293.334V67H280.734Z" fill="url(#paint0_linear_29_2316)"/>
</g>
<g filter="url(#filter1_d_29_2316)">
<path d="M44.0507 127L31.6987 82.2H42.4507L50.1947 113.56L58.8347 82.2H67.1547L75.7948 113.56L83.5387 82.2H94.2907L81.9387 127H70.2907L62.9947 100.568L55.6987 127H44.0507ZM116.593 95H126.193V127H116.593V123.992C114.481 126.424 111.345 127.896 107.057 127.896C98.6732 127.896 91.7612 120.536 91.7612 111C91.7612 101.464 98.6732 94.104 107.057 94.104C111.345 94.104 114.481 95.576 116.593 98.008V95ZM108.977 118.808C113.393 118.808 116.593 115.8 116.593 111C116.593 106.2 113.393 103.192 108.977 103.192C104.561 103.192 101.361 106.2 101.361 111C101.361 115.8 104.561 118.808 108.977 118.808ZM141.556 100.696C142.836 96.408 147.124 94.36 151.156 94.36V105.24C147.188 104.6 141.556 106.2 141.556 112.536V127H131.956V95H141.556V100.696ZM171.964 90.52C168.38 90.2 166.012 91.288 166.012 95H171.964V104.216H166.012V127H156.412V104.216H152.124V95H156.412C156.412 86.04 161.34 80.664 171.964 81.304V90.52ZM196.503 95H206.103V127H196.503V123.992C194.391 126.424 191.255 127.896 186.967 127.896C178.583 127.896 171.671 120.536 171.671 111C171.671 101.464 178.583 94.104 186.967 94.104C191.255 94.104 194.391 95.576 196.503 98.008V95ZM188.887 118.808C193.303 118.808 196.503 115.8 196.503 111C196.503 106.2 193.303 103.192 188.887 103.192C184.471 103.192 181.271 106.2 181.271 111C181.271 115.8 184.471 118.808 188.887 118.808ZM221.466 100.696C222.746 96.408 227.034 94.36 231.066 94.36V105.24C227.098 104.6 221.466 106.2 221.466 112.536V127H211.866V95H221.466V100.696ZM241.912 114.84C243.128 118.168 246.072 119.32 249.592 119.32C252.216 119.32 254.456 118.296 255.736 116.888L263.416 121.304C260.28 125.656 255.544 127.896 249.464 127.896C238.52 127.896 231.736 120.536 231.736 111C231.736 101.464 238.648 94.104 248.76 94.104C258.104 94.104 265.016 101.336 265.016 111C265.016 112.344 264.888 113.624 264.632 114.84H241.912ZM241.72 107.672H255.48C254.456 103.96 251.576 102.616 248.696 102.616C245.048 102.616 242.616 104.408 241.72 107.672Z" fill="url(#paint1_linear_29_2316)"/>
</g>
<defs>
<filter id="filter0_d_29_2316" x="5.10547" y="5.67999" width="288.229" height="68" filterUnits="userSpaceOnUse" color-interpolation-filters="sRGB">
<feFlood flood-opacity="0" result="BackgroundImageFix"/>
<feColorMatrix in="SourceAlpha" type="matrix" values="0 0 0 0 0 0 0 0 0 0 0 0 0 0 0 0 0 0 127 0" result="hardAlpha"/>
<feOffset dy="5"/>
<feComposite in2="hardAlpha" operator="out"/>
<feColorMatrix type="matrix" values="0 0 0 0 0.6 0 0 0 0 0.337255 0 0 0 0 0.00784314 0 0 0 1 0"/>
<feBlend mode="normal" in2="BackgroundImageFix" result="effect1_dropShadow_29_2316"/>
<feBlend mode="normal" in="SourceGraphic" in2="effect1_dropShadow_29_2316" result="shape"/>
</filter>
<filter id="filter1_d_29_2316" x="31.6987" y="80.664" width="233.317" height="52.232" filterUnits="userSpaceOnUse" color-interpolation-filters="sRGB">
<feFlood flood-opacity="0" result="BackgroundImageFix"/>
<feColorMatrix in="SourceAlpha" type="matrix" values="0 0 0 0 0 0 0 0 0 0 0 0 0 0 0 0 0 0 127 0" result="hardAlpha"/>
<feOffset dy="5"/>
<feComposite in2="hardAlpha" operator="out"/>
<feColorMatrix type="matrix" values="0 0 0 0 0.6 0 0 0 0 0.337255 0 0 0 0 0.00784314 0 0 0 1 0"/>
<feBlend mode="normal" in2="BackgroundImageFix" result="effect1_dropShadow_29_2316"/>
<feBlend mode="normal" in="SourceGraphic" in2="effect1_dropShadow_29_2316" result="shape"/>
</filter>
<linearGradient id="paint0_linear_29_2316" x1="149" y1="0" x2="149" y2="76" gradientUnits="userSpaceOnUse">
<stop stop-color="#FDAB19"/>
<stop offset="1" stop-color="#FDEA83"/>
</linearGradient>
<linearGradient id="paint1_linear_29_2316" x1="149" y1="76" x2="149" y2="134" gradientUnits="userSpaceOnUse">
<stop stop-color="#FDAB19"/>
<stop offset="1" stop-color="#FDEA83"/>
</linearGradient>
</defs>
</svg>
